<?xml version="1.0" standalone="no"?>
<!DOCTYPE svg PUBLIC "-//W3C//DTD SVG 20010904//EN"
 "http://www.w3.org/TR/2001/REC-SVG-20010904/DTD/svg10.dtd">
<svg version="1.0" xmlns="http://www.w3.org/2000/svg"
 width="1280.000000pt" height="640.000000pt" viewBox="0 0 1280.000000 640.000000"
 preserveAspectRatio="xMidYMid meet">
<metadata>
Created by potrace 1.15, written by Peter Selinger 2001-2017
</metadata>
<g transform="translate(0.000000,640.000000) scale(0.100000,-0.100000)"
fill="#000000" stroke="none">
<path d="M5968 4845 c-3 -3 -3 -28 0 -55 l5 -50 -55 0 -55 0 -7 -37 c-10 -61
-7 -193 5 -214 9 -17 17 -19 53 -14 53 8 59 0 51 -59 l-7 -44 -75 -4 c-86 -4
-103 -17 -103 -79 0 -21 -4 -49 -10 -63 -8 -22 -16 -26 -48 -26 -45 0 -62 -14
-62 -53 0 -22 15 -43 64 -92 103 -101 158 -232 121 -288 -15 -24 -15 -28 -1
-49 17 -23 22 -123 8 -144 -4 -6 -20 -17 -37 -25 -26 -12 -31 -21 -35 -64 -5
-47 -7 -51 -40 -61 -39 -13 -51 -43 -25 -64 9 -8 44 -19 78 -25 l62 -11 3
-295 c3 -320 -5 -424 -44 -572 -34 -127 -117 -294 -199 -401 -37 -49 -72 -106
-76 -125 -5 -20 -9 -79 -9 -131 0 -67 -5 -101 -15 -114 -8 -11 -15 -37 -15
-58 0 -35 3 -38 38 -47 150 -40 1004 -40 1109 0 19 7 23 16 23 53 0 26 -6 48
-15 56 -12 10 -15 36 -15 115 0 56 -3 116 -6 132 -3 16 -37 69 -75 117 -113
144 -157 233 -207 420 l-27 101 0 375 0 375 50 6 c71 9 93 17 100 38 9 30 -5
50 -38 53 -31 3 -32 5 -35 56 -3 51 -4 53 -43 68 -38 16 -39 17 -39 68 0 32 8
67 20 90 19 38 19 39 -2 55 -19 16 -20 21 -9 69 17 80 47 130 127 213 46 47
74 84 74 97 0 31 -35 62 -68 62 -40 0 -52 17 -52 72 0 71 -21 88 -110 88 -65
0 -70 2 -76 24 -3 13 -4 38 -2 57 3 34 3 34 53 34 l50 0 3 133 3 132 -56 0
-55 0 0 55 0 55 -123 0 c-68 0 -126 -2 -129 -5z"/>
<path d="M7429 4661 c-45 -14 -68 -31 -84 -61 -21 -40 -19 -75 6 -136 25 -60
20 -124 -9 -124 -29 0 -60 -28 -88 -80 l-27 -50 -73 0 c-82 0 -104 -13 -104
-60 0 -22 16 -45 69 -98 74 -75 121 -156 128 -225 4 -31 1 -46 -11 -56 -20
-17 -20 -35 -1 -51 11 -9 15 -32 15 -79 0 -66 0 -68 -32 -82 -30 -12 -34 -19
-38 -63 -5 -46 -7 -50 -37 -58 -80 -21 -55 -83 40 -98 31 -5 61 -11 65 -14 4
-2 7 -168 7 -368 l0 -363 -28 -110 c-33 -131 -103 -280 -179 -379 -123 -161
-110 -131 -116 -268 -2 -68 -8 -127 -12 -133 -5 -5 -11 -31 -15 -56 -5 -35 -3
-48 9 -58 26 -22 320 -33 691 -28 323 5 458 16 480 38 15 15 9 88 -9 108 -13
14 -16 40 -16 128 0 109 -1 112 -32 156 -150 211 -177 256 -222 374 -63 162
-67 201 -73 600 l-5 362 38 6 c95 15 140 47 118 83 -6 9 -26 19 -45 22 -32 5
-34 7 -31 39 6 56 -5 80 -41 89 -31 8 -32 10 -35 65 -2 37 2 67 13 87 15 30
15 33 -1 51 -38 42 22 185 121 288 72 74 81 105 43 141 -17 16 -35 20 -89 20
-74 0 -69 -3 -122 80 -14 21 -35 38 -55 44 -30 8 -32 12 -32 52 0 26 8 57 20
76 40 67 15 144 -61 183 -30 16 -97 18 -140 6z"/>
<path d="M2341 4236 c-6 -7 -24 -51 -40 -97 -16 -46 -32 -92 -36 -102 -4 -10
-116 -97 -249 -194 -310 -226 -289 -206 -282 -268 8 -74 41 -186 57 -195 19
-11 216 -30 306 -30 l73 0 0 -48 c0 -27 -37 -196 -85 -386 -47 -186 -85 -349
-85 -362 0 -29 21 -38 105 -48 112 -13 112 -14 61 -135 -50 -118 -97 -197
-166 -279 -33 -40 -65 -84 -70 -98 -6 -14 -10 -70 -10 -125 0 -71 -5 -109 -16
-130 -8 -17 -14 -48 -12 -71 3 -37 7 -43 33 -50 98 -26 564 -36 867 -18 176
10 257 23 270 43 12 19 9 66 -6 100 -8 18 -16 79 -19 138 -5 117 -13 139 -74
209 -129 146 -255 400 -200 400 26 0 193 21 210 26 35 11 42 46 50 249 12 289
11 343 -8 410 -10 33 -21 103 -25 155 -8 101 -19 140 -69 238 -17 34 -37 88
-45 121 -14 60 -86 211 -154 323 -21 35 -52 93 -69 130 -17 36 -39 71 -50 76
-54 28 -243 42 -262 18z"/>
<path d="M10387 4223 c-10 -3 -36 -42 -62 -93 -24 -49 -64 -119 -88 -157 -61
-94 -91 -156 -116 -238 -12 -38 -39 -109 -62 -157 -28 -59 -44 -110 -50 -160
-11 -79 -19 -120 -43 -213 -13 -50 -15 -105 -11 -333 4 -172 10 -286 18 -310
15 -45 48 -57 181 -67 l88 -7 -6 -31 c-11 -53 -101 -229 -157 -305 -130 -176
-119 -150 -119 -277 0 -89 -3 -115 -15 -125 -12 -10 -15 -28 -13 -69 l3 -56
120 -13 c161 -17 904 -11 988 8 l57 13 0 42 c0 26 -6 48 -15 55 -12 10 -15 38
-15 136 l0 123 -45 53 c-114 134 -220 318 -238 415 -7 35 -13 32 121 49 52 6
82 24 82 48 0 7 -12 50 -26 97 -49 161 -154 591 -154 629 0 61 13 67 157 74
158 9 208 15 228 30 16 11 47 109 58 183 6 35 4 45 -14 62 -12 11 -135 101
-274 200 l-253 180 -32 103 c-18 57 -37 106 -44 110 -12 8 -219 9 -249 1z"/>
<path d="M4229 4184 c-11 -14 -10 -19 10 -35 13 -11 29 -19 37 -19 39 0 4 -42
-138 -163 -77 -66 -103 -103 -118 -170 -15 -70 2 -125 61 -192 l48 -56 -16
-34 c-15 -32 -15 -36 0 -53 20 -22 34 -131 20 -156 -5 -9 -25 -24 -44 -34 -31
-15 -34 -21 -34 -61 0 -41 -2 -45 -35 -56 -26 -9 -36 -18 -38 -37 -4 -33 18
-50 86 -63 l57 -12 3 -181 c3 -217 -12 -332 -63 -489 -36 -113 -107 -241 -183
-331 -69 -82 -72 -89 -72 -192 0 -78 -4 -100 -20 -125 -20 -30 -26 -80 -12
-102 11 -17 110 -30 332 -44 276 -17 766 2 821 32 24 12 26 86 4 115 -10 13
-14 45 -15 107 0 104 -9 129 -82 220 -66 82 -137 215 -172 322 -45 136 -56
229 -56 456 0 236 -10 209 85 224 60 10 77 22 73 53 -2 21 -11 30 -38 38 -33
11 -35 14 -40 65 -5 50 -7 54 -38 63 -22 6 -34 17 -38 33 -10 40 2 122 21 143
16 18 17 24 5 60 l-13 40 45 48 c54 57 73 107 65 173 -9 76 -39 120 -151 224
-57 53 -107 103 -110 111 -4 9 7 19 29 28 37 16 48 49 19 60 -9 3 -75 6 -149
6 -110 0 -135 -3 -146 -16z"/>
<path d="M8811 4191 c-21 -13 -4 -48 30 -60 26 -9 29 -13 20 -30 -6 -10 -56
-59 -111 -108 -115 -101 -150 -156 -150 -235 0 -63 20 -110 70 -164 l39 -43
-14 -40 c-12 -36 -12 -41 6 -57 15 -14 19 -31 19 -83 0 -74 -3 -80 -45 -102
-26 -13 -30 -21 -30 -55 0 -48 -10 -64 -39 -64 -30 0 -49 -23 -41 -50 8 -27
32 -38 97 -48 l53 -7 3 -194 c3 -225 -9 -318 -64 -480 -41 -123 -77 -193 -144
-281 -109 -142 -104 -133 -110 -249 -3 -59 -11 -116 -18 -129 -7 -12 -12 -42
-10 -65 l3 -42 55 -7 c112 -14 752 -21 905 -9 194 14 209 18 213 58 2 18 -6
49 -17 72 -16 31 -21 59 -21 121 0 88 -13 128 -54 175 -54 60 -111 152 -153
248 -88 198 -113 339 -113 623 l0 153 38 6 c66 10 109 25 133 44 34 27 11 51
-47 51 -48 0 -50 3 -45 77 2 27 -3 34 -31 49 -44 23 -48 29 -48 98 0 48 4 64
22 83 19 20 20 27 10 43 -21 34 -13 61 32 111 56 63 74 121 57 192 -16 72 -46
111 -162 212 -54 47 -99 93 -99 101 0 9 14 21 30 27 37 14 40 44 4 57 -31 12
-254 13 -273 1z"/>
<path d="M440 3693 c-25 -3 -52 -11 -61 -19 -12 -11 -22 -12 -43 -4 -15 5 -63
10 -107 10 l-79 0 0 -84 c0 -47 5 -88 10 -91 6 -4 10 -57 10 -126 0 -113 1
-121 24 -144 13 -13 41 -27 62 -30 22 -4 49 -10 62 -14 l23 -6 -1 -272 c-1
-269 -6 -335 -37 -443 -37 -129 -130 -307 -222 -424 l-46 -59 -5 -121 c-3 -69
-10 -130 -18 -143 -15 -27 -16 -89 -1 -98 70 -44 917 -47 1126 -4 52 10 53 11
53 47 -1 20 -9 55 -20 77 -15 31 -19 62 -20 140 0 112 -5 124 -93 231 -62 78
-152 257 -184 369 -23 83 -26 114 -34 389 -6 201 -5 303 1 312 6 6 35 15 65
19 30 3 65 15 77 25 24 19 23 6 44 356 l5 91 -32 7 c-17 3 -71 6 -119 6 -66 0
-91 -4 -100 -15 -8 -10 -31 -15 -67 -15 -46 0 -56 3 -60 20 -5 18 -13 20 -87
18 -44 -1 -101 -3 -126 -5z"/>
<path d="M12155 3671 c-5 -18 -14 -21 -59 -21 -35 0 -58 5 -66 15 -13 16 -137
21 -212 9 l-38 -7 0 -86 c0 -51 5 -92 11 -98 7 -7 11 -49 10 -115 -2 -128 11
-153 87 -163 97 -13 92 -2 92 -187 -1 -259 -15 -429 -45 -533 -33 -114 -101
-252 -165 -335 -110 -143 -105 -131 -108 -254 -3 -74 -9 -117 -18 -130 -8 -11
-14 -41 -14 -67 0 -58 -8 -55 220 -74 292 -24 803 -16 918 14 22 6 28 14 30
44 2 19 -4 49 -12 66 -12 21 -16 59 -16 131 0 108 -14 153 -60 195 -30 27
-127 195 -166 286 -71 167 -79 222 -79 539 l0 284 55 11 c66 14 95 28 104 52
4 9 7 68 7 130 0 62 5 115 10 118 5 4 9 44 9 91 l0 84 -73 0 c-39 0 -88 -5
-107 -10 -28 -8 -37 -7 -46 5 -8 11 -43 16 -136 21 -123 7 -126 6 -133 -15z"/>
</g>
</svg>
